<svg width="174" height="175" viewBox="0 0 174 175" fill="none" xmlns="http://www.w3.org/2000/svg">
<path d="M173.665 39.8885V135.207C173.635 145.569 169.504 155.498 162.175 162.825C154.846 170.152 144.914 174.281 134.548 174.312H39.2009C31.4451 174.302 23.8679 171.984 17.4345 167.654C11.753 163.818 7.16351 158.576 4.11424 152.437C1.46209 147.092 0.0826435 141.206 0.0837409 135.239V39.8885C0.113998 29.5265 4.24497 19.5975 11.5743 12.2705C18.9036 4.94339 28.8357 0.813695 39.2009 0.783447L134.548 0.783447C144.914 0.813695 154.846 4.94339 162.175 12.2705C169.504 19.5975 173.635 29.5265 173.665 39.8885Z" fill="url(#paint0_linear_18_2062)"/>
<path d="M129.297 131.341C86.8214 130.711 50.8664 145.853 17.4346 167.654C11.753 163.818 7.16352 158.576 4.11426 152.437C23.4066 107.6 42.7644 62.5981 62.4418 16.8513C77.4497 51.8616 91.9332 85.7008 106.441 119.499C97.5858 119.958 89.0087 120.629 80.4234 120.678C78.6621 120.678 76.0734 118.77 75.2788 117.083C71.9036 109.934 69.0938 102.522 65.9971 95.2416C65.1779 93.2843 64.0474 91.4417 62.1796 87.871L42.5187 134.371C57.4119 131.554 71.6579 128.45 86.0431 126.231C100.772 123.954 115.084 127.148 129.297 131.341Z" fill="white"/>
<path d="M148.295 142.519C115.567 142.658 89.3527 155.418 66.3739 174.311H39.2008C34.3827 174.317 29.6062 173.419 25.1187 171.666C39.2666 162.583 54.3468 155.041 70.1013 149.169C93.5142 140.513 117.542 137.155 142.372 141.07C143.945 141.324 145.477 141.823 148.295 142.519Z" fill="white"/>
<path d="M130.116 174.311H97.5694C96.3535 173.831 95.0005 173.831 93.7846 174.311H78.8423C90.4627 165.557 103.481 158.832 117.345 154.419C121.13 153.215 121.974 155.401 123.079 157.875C125.422 163.345 127.765 168.832 130.116 174.311Z" fill="white"/>
<defs>
<linearGradient id="paint0_linear_18_2062" x1="36.0469" y1="-12.4754" x2="129.161" y2="170.879" gradientUnits="userSpaceOnUse">
<stop stop-color="#13890C"/>
<stop offset="1" stop-color="#FBDD3B"/>
</linearGradient>
</defs>
</svg>
